<?xml version="1.0" standalone="yes"?>
<svg xmlns="http://www.w3.org/2000/svg" width="768" height="300">
<path style="fill:#fffefe; stroke:none;" d="M0 0L0 300L768 300L768 0L0 0z"/>
<path style="fill:#bdafa6; stroke:none;" d="M320 6L320 294L321 294L321 91L321 32L320 6z"/>
<path style="fill:#535353; stroke:none;" d="M321 6L321 294L325 293C322.369 270.047 325 245.154 325 222L325 75L325 23C325 17.6254 327.176 8.0499 321 6z"/>
<path style="fill:#bdafa6; stroke:none;" d="M324 6L325 7L324 6M96 47L96 48L99 48L96 47z"/>
<path style="fill:#e39866; stroke:none;" d="M99 47L99 48L107 48L99 47z"/>
<path style="fill:#e37328; stroke:none;" d="M107 47.4252C83.837 50.3548 62.241 55.1332 44 71.1844C-9.46381 118.23 -0.795769 205.325 63 238.88C87.213 251.615 117.307 253.266 143 244.305C152.619 240.95 161.791 236.115 170 230.076C172.67 228.111 176.281 223.5 180 224.921C184.513 226.646 188.65 232.65 192 236L217 261C219.788 263.788 226.172 272.806 230.677 272.079C237.041 271.051 224.225 259.226 223 258L195 230C192.138 227.138 185.301 222.434 185.192 218C185.064 212.778 193.93 204.616 196.573 200C203.145 188.518 207.523 176.077 209.561 163C218.359 106.551 168.062 39.7021 107 47.4252z"/>
<path style="fill:#e39866; stroke:none;" d="M114 47L114 48L120 48L114 47z"/>
<path style="fill:#bdafa6; stroke:none;" d="M120 47L121 48L120 47M90 48L91 49L90 48z"/>
<path style="fill:#e39866; stroke:none;" d="M91 48L91 49L94 49L91 48M123 48L123 49L128 49L123 48z"/>
<path style="fill:#bdafa6; stroke:none;" d="M85 49L86 50L85 49z"/>
<path style="fill:#e39866; stroke:none;" d="M86 49L86 50L89 50L86 49M129 49L129 50L132 50L129 49z"/>
<path style="fill:#bdafa6; stroke:none;" d="M132 49L133 50L132 49z"/>
<path style="fill:#e39866; stroke:none;" d="M82 50L82 51L85 51L82 50M133 50L133 51L136 51L133 50z"/>
<path style="fill:#bdafa6; stroke:none;" d="M136 50L137 51L136 50M78 51L79 52L78 51z"/>
<path style="fill:#e39866; stroke:none;" d="M79.6667 51.3333L80.3333 51.6667L79.6667 51.3333M137.667 51.3333L138.333 51.6667L137.667 51.3333z"/>
<path style="fill:#bdafa6; stroke:none;" d="M139 51L140 52L139 51M75 52L76 53L75 52z"/>
<path style="fill:#e39866; stroke:none;" d="M76.6667 52.3333L77.3333 52.6667L76.6667 52.3333M140 52L140 53L143 53L140 52z"/>
<path style="fill:#bdafa6; stroke:none;" d="M143 52L144 53L143 52M72 53L73 54L72 53z"/>
<path style="fill:#e39866; stroke:none;" d="M73 53L73 54L76 54L73 53M107 53L107 54L113 54L107 53M144 53L145 54L144 53z"/>
<path style="fill:#bdafa6; stroke:none;" d="M145 53L146 54L145 53M70 54L71 55L70 54z"/>
<path style="fill:#e39866; stroke:none;" d="M71 54L72 55L71 54M95 54L95 55L102 55L95 54z"/>
<path style="fill:#bdafa6; stroke:none;" d="M102 54L102 55L109 55L102 54z"/>
<path style="fill:#fffefe; stroke:none;" d="M109 54.7099C28.9886 55.7748 -16.5178 155.094 41.0147 214C49.322 222.506 59.1317 229.75 70 234.688C84.3244 241.196 99.3827 243.368 115 242.985C125.365 242.731 135.399 239.92 145 236.189C220.51 206.843 222.463 94.532 148 62.4282C135.617 57.0893 122.454 54.5308 109 54.7099z"/>
<path style="fill:#bdafa6; stroke:none;" d="M110 54L110 55L117 55L110 54z"/>
<path style="fill:#e39866; stroke:none;" d="M117 54L117 55L124 55L117 54M146 54L146 55L150 56L150 55L146 54z"/>
<path style="fill:#bdafa6; stroke:none;" d="M148 54L149 55L148 54M68 55L69 56L68 55z"/>
<path style="fill:#e39866; stroke:none;" d="M69 55L70 56L69 55M90 55L90 56L94 56L90 55z"/>
<path style="fill:#bdafa6; stroke:none;" d="M94 55L95 56L94 55z"/>
<path style="fill:#e39866; stroke:none;" d="M124 55L124 56L129 56L124 55z"/>
<path style="fill:#bdafa6; stroke:none;" d="M150 55L151 56L150 55z"/>
<path style="fill:#e39866; stroke:none;" d="M66.6667 56.3333L67.3333 56.6667L66.6667 56.3333M82 57L82 58L89 57L82 57z"/>
<path style="fill:#bdafa6; stroke:none;" d="M89 56L90 57L89 56M129 56L130 57L129 56z"/>
<path style="fill:#e39866; stroke:none;" d="M130 56L130 57L133 57L130 56M151.667 56.3333L152.333 56.6667L151.667 56.3333M64.6667 57.3333L65.3333 57.6667L64.6667 57.3333z"/>
<path style="fill:#bdafa6; stroke:none;" d="M85 57L86 58L85 57M133 57L134 58L133 57z"/>
<path style="fill:#e39866; stroke:none;" d="M134 57L134 58L137 58L134 57M153.667 57.3333L154.333 57.6667L153.667 57.3333z"/>
<path style="fill:#bdafa6; stroke:none;" d="M61 58L62 59L61 58z"/>
<path style="fill:#e39866; stroke:none;" d="M62.6667 58.3333L63.3333 58.6667L62.6667 58.3333M79.6667 58.3333L80.3333 58.6667L79.6667 58.3333z"/>
<path style="fill:#bdafa6; stroke:none;" d="M81 58L82 59L81 58M136.667 58.3333L137.333 58.6667L136.667 58.3333z"/>
<path style="fill:#e39866; stroke:none;" d="M138.667 58.3333L139.333 58.6667L138.667 58.3333M155 58L156 59L155 58z"/>
<path style="fill:#bdafa6; stroke:none;" d="M156 58L157 59L156 58M59 59L60 60L59 59z"/>
<path style="fill:#e39866; stroke:none;" d="M60.6667 59.3333L61.3333 59.6667L60.6667 59.3333M76.6667 59.3333L77.3333 59.6667L76.6667 59.3333z"/>
<path style="fill:#bdafa6; stroke:none;" d="M78 59L79 60L78 59z"/>
<path style="fill:#e39866; stroke:none;" d="M140 59L140 60L143 60L140 59M157 59L158 60L157 59z"/>
<path style="fill:#bdafa6; stroke:none;" d="M158 59L159 60L158 59z"/>
<path style="fill:#e39866; stroke:none;" d="M58.6667 60.3333L59.3333 60.6667L58.6667 60.3333M71 61L71 62L75 61L71 61z"/>
<path style="fill:#bdafa6; stroke:none;" d="M75 60L76 61L75 60M143 60L144 61L143 60z"/>
<path style="fill:#e39866; stroke:none;" d="M144 60L144 61L148 62L148 61L144 60M159 60L162 62L162 61L159 60z"/>
<path style="fill:#bdafa6; stroke:none;" d="M160 60L161 61L160 60M56 61L57 62L56 61z"/>
<path style="fill:#e39866; stroke:none;" d="M57 61L58 62L57 61z"/>
<path style="fill:#bdafa6; stroke:none;" d="M73 61L74 62L73 61M145 61L146 62L145 61M54 62L53 64L54 62z"/>
<path style="fill:#e39866; stroke:none;" d="M55.6667 62.3333L56.3333 62.6667L55.6667 62.3333M69.6667 62.3333L70.3333 62.6667L69.6667 62.3333M148.667 62.3333L149.333 62.6667L148.667 62.3333M162.667 62.3333L163.333 62.6667L162.667 62.3333M54 63L55 64L54 63M67.6667 63.3333L68.3333 63.6667L67.6667 63.3333M150.667 63.3333L151.333 63.6667L150.667 63.3333M164 63L165 64L164 63M52 64L53 65L52 64M65 64L66 65L65 64z"/>
<path style="fill:#bdafa6; stroke:none;" d="M66 64L67 65L66 64z"/>
<path style="fill:#e39866; stroke:none;" d="M152.667 64.3333L153.333 64.6667L152.667 64.3333M165.667 64.3333L166.333 64.6667L165.667 64.3333z"/>
<path style="fill:#bdafa6; stroke:none;" d="M50 65L51 66L50 65z"/>
<path style="fill:#e39866; stroke:none;" d="M51 65L52 66L51 65M63 65L64 66L63 65z"/>
<path style="fill:#bdafa6; stroke:none;" d="M64 65L65 66L64 65z"/>
<path style="fill:#e39866; stroke:none;" d="M154 65L154 66L159 68L159 67L154 65M167 65L171 68L171 67L167 65z"/>
<path style="fill:#bdafa6; stroke:none;" d="M168 65L169 66L168 65z"/>
<path style="fill:#e39866; stroke:none;" d="M49.6667 66.3333L50.3333 66.6667L49.6667 66.3333M61.6667 66.3333L62.3333 66.6667L61.6667 66.3333z"/>
<path style="fill:#bdafa6; stroke:none;" d="M155 66L156 67L155 66M169 66L170 67L169 66z"/>
<path style="fill:#e39866; stroke:none;" d="M48 67L49 68L48 67M60 67L61 68L60 67z"/>
<path style="fill:#bdafa6; stroke:none;" d="M157 67L158 68L157 67z"/>
<path style="fill:#e39866; stroke:none;" d="M46.6667 68.3333L47.3333 68.6667L46.6667 68.3333M58 68L59 69L58 68z"/>
<path style="fill:#bdafa6; stroke:none;" d="M59 68L60 69L59 68z"/>
<path style="fill:#e39866; stroke:none;" d="M159 68L159 69L162 70L159 68M171 68L172 69L171 68M45 69L46 70L45 69M54 72L58 70L54 72z"/>
<path style="fill:#bdafa6; stroke:none;" d="M160 69L161 70L160 69z"/>
<path style="fill:#e39866; stroke:none;" d="M172 69L176 72L176 71L172 69z"/>
<path style="fill:#bdafa6; stroke:none;" d="M173 69L174 70L173 69z"/>
<path style="fill:#e39866; stroke:none;" d="M44 70L45 71L44 70z"/>
<path style="fill:#bdafa6; stroke:none;" d="M56 70L57 71L56 70z"/>
<path style="fill:#e39866; stroke:none;" d="M162 70L162 71L165 72L162 70M43 71L44 72L43 71z"/>
<path style="fill:#bdafa6; stroke:none;" d="M163 71L164 72L163 71z"/>
<path style="fill:#e39866; stroke:none;" d="M42 72L43 73L42 72M52 72L51 74L52 72z"/>
<path style="fill:#bdafa6; stroke:none;" d="M53 72L54 73L53 72z"/>
<path style="fill:#e39866; stroke:none;" d="M165 72L165 73L168 74L165 72M176 72L177 73L176 72z"/>
<path style="fill:#bdafa6; stroke:none;" d="M40 73L33 81L40 73z"/>
<path style="fill:#e39866; stroke:none;" d="M41 73L42 74L41 73z"/>
<path style="fill:#bdafa6; stroke:none;" d="M52 73L53 74L52 73M166 73L167 74L166 73z"/>
<path style="fill:#e39866; stroke:none;" d="M177 73L178 74L177 73M40 74L41 75L40 74M45 79L51 75L45 79M168 74L169 75L168 74M178 74L184 80L178 74z"/>
<path style="fill:#bdafa6; stroke:none;" d="M179 74L180 75L179 74z"/>
<path style="fill:#e39866; stroke:none;" d="M39 75L40 76L39 75M169 75L170 76L169 75z"/>
<path style="fill:#bdafa6; stroke:none;" d="M180 75L181 76L180 75z"/>
<path style="fill:#e39866; stroke:none;" d="M38 76L39 77L38 76z"/>
<path style="fill:#bdafa6; stroke:none;" d="M48 76L49 77L48 76z"/>
<path style="fill:#e39866; stroke:none;" d="M170 76L170 77L181 88L182 88L170 76z"/>
<path style="fill:#bdafa6; stroke:none;" d="M181 76L182 77L181 76z"/>
<path style="fill:#e39866; stroke:none;" d="M37 77L38 78L37 77z"/>
<path style="fill:#bdafa6; stroke:none;" d="M47 77L48 78L47 77M182 77L183 78L182 77z"/>
<path style="fill:#e39866; stroke:none;" d="M36 78L37 79L36 78z"/>
<path style="fill:#bdafa6; stroke:none;" d="M46 78L47 79L46 78M172 78L173 79L172 78M183 78L184 79L183 78z"/>
<path style="fill:#e39866; stroke:none;" d="M35 79L36 80L35 79M44 79L45 80L44 79z"/>
<path style="fill:#bdafa6; stroke:none;" d="M173 79L174 80L173 79z"/>
<path style="fill:#e39866; stroke:none;" d="M34 80L35 81L34 80M43 80L44 81L43 80z"/>
<path style="fill:#bdafa6; stroke:none;" d="M174 80L175 81L174 80z"/>
<path style="fill:#e39866; stroke:none;" d="M184 80L186 82L184 80z"/>
<path style="fill:#bdafa6; stroke:none;" d="M185 80L186 81L185 80z"/>
<path style="fill:#e39866; stroke:none;" d="M33 81L34 82L33 81M42 81L43 82L42 81z"/>
<path style="fill:#bdafa6; stroke:none;" d="M175 81L176 82L175 81z"/>
<path style="fill:#e39866; stroke:none;" d="M32 82L33 83L32 82M41 82L42 83L41 82z"/>
<path style="fill:#bdafa6; stroke:none;" d="M176 82L177 83L176 82z"/>
<path style="fill:#e39866; stroke:none;" d="M186 82L187 83L186 82M31 83L28 88L31 83M40 83L41 84L40 83z"/>
<path style="fill:#bdafa6; stroke:none;" d="M177 83L178 84L177 83z"/>
<path style="fill:#e39866; stroke:none;" d="M187 83L190 87L187 83M39 84L40 85L39 84z"/>
<path style="fill:#bdafa6; stroke:none;" d="M178 84L179 85L178 84M188 84L189 85L188 84M29 85L30 86L29 85z"/>
<path style="fill:#e39866; stroke:none;" d="M38 85L36 89L37 89L38 85z"/>
<path style="fill:#bdafa6; stroke:none;" d="M179 85L180 86L179 85M189 85L190 86L189 85M28 86L29 87L28 86M38 86L39 87L38 86M180 86L181 87L180 86M37 87L38 88L37 87z"/>
<path style="fill:#e39866; stroke:none;" d="M190 87L191 88L190 87M27 88L24 94L25 94L27 88M182 88L183 89L182 88M191.333 88.6667L191.667 89.3333L191.333 88.6667M35 89L36 90L35 89M183 89L184 90L183 89z"/>
<path style="fill:#bdafa6; stroke:none;" d="M25 90L26 91L25 90z"/>
<path style="fill:#e39866; stroke:none;" d="M34 90L35 91L34 90M184 90L185 93L186 93L184 90M192 90L193 91L192 90M33 91L32 94L33 94L33 91z"/>
<path style="fill:#bdafa6; stroke:none;" d="M184 91L185 92L184 91z"/>
<path style="fill:#e39866; stroke:none;" d="M193 91L195 96L196 96L193 91z"/>
<path style="fill:#bdafa6; stroke:none;" d="M24 92L25 93L24 92M33 92L34 93L33 92z"/>
<path style="fill:#e39866; stroke:none;" d="M85 104L86 104C91.5392 91.4426 113.624 88.7111 124.985 95.3673C130.456 98.5732 135.868 106.773 129 111L128 108C127.933 110.78 131.023 112.524 132.969 109.663C135.294 106.244 132.684 100.846 130.442 98.1049C120.885 86.4223 89.5221 88.7851 85 104z"/>
<path style="fill:#bdafa6; stroke:none;" d="M122 92L123 93L122 92M194 92L195 93L194 92M93 93L94 94L93 93z"/>
<path style="fill:#e37328; stroke:none;" d="M129 111C137.55 107.563 129.616 96.8259 123.996 94.3673C116.605 91.134 98.9967 91.1739 92.0432 95.3673C89.1777 97.0954 81.397 106.615 86.5849 109.673C89.9645 111.665 93.8462 101.232 97.0432 99.858C110.25 94.1839 123.235 99.594 129 111z"/>
<path style="fill:#bdafa6; stroke:none;" d="M124 93L125 94L124 93z"/>
<path style="fill:#e39866; stroke:none;" d="M186 93L187 94L186 93M23 94L24 95L23 94M31 94L30 96L31 94z"/>
<path style="fill:#bdafa6; stroke:none;" d="M91 94L92 95L91 94M126 94L127 95L126 94z"/>
<path style="fill:#e39866; stroke:none;" d="M187.333 94.6667L187.667 95.3333L187.333 94.6667z"/>
<path style="fill:#bdafa6; stroke:none;" d="M22 95L21 97L22 95M31 95L32 96L31 95z"/>
<path style="fill:#e39866; stroke:none;" d="M22 96L23 97L22 96z"/>
<path style="fill:#bdafa6; stroke:none;" d="M30 96L31 97L30 96z"/>
<path style="fill:#e39866; stroke:none;" d="M188 96L191 102L192 102L188 96M196 96L198 99L196 96z"/>
<path style="fill:#bdafa6; stroke:none;" d="M527.044 96.7577C517.788 100.237 523.928 113.932 532.891 109.987C541.084 106.381 535.553 93.5593 527.044 96.7577M751 96L751 137L750 137L741 129L741 130L752 139L752 97L761 97L761 197L753 197C764.95 202.002 762 184.921 762 178L762 121C762 114.865 764.13 103.873 761.397 98.3179C759.748 94.967 754.053 96.0003 751 96z"/>
<path style="fill:#e39866; stroke:none;" d="M21 97L18 104L19 104L21 97M29 97L28 100L29 100L29 97z"/>
<path style="fill:#bdafa6; stroke:none;" d="M188 97L189 98L188 97z"/>
<path style="fill:#535353; stroke:none;" d="M527.059 98.0432C519.667 101.846 525.947 112.754 532.852 108.816C539.41 105.077 533.938 94.5038 527.059 98.0432M752 97L752 139C745.791 132.808 739.984 127.595 731 126.3C724.429 125.353 717.25 125.838 711 128.09C705.156 130.196 699.922 134.085 696.221 139.09C685.034 154.217 687.007 178.71 702.004 190.61C715.985 201.703 742.049 201.206 751 184L752 184L752 197L761 197L761 97L752 97z"/>
<path style="fill:#bdafa6; stroke:none;" d="M20 98L21 99L20 98M29 98L30 99L29 98M86 99L87 100L86 99z"/>
<path style="fill:#e39866; stroke:none;" d="M96 99L96 100L100 100L96 99z"/>
<path style="fill:#bdafa6; stroke:none;" d="M100 99L100 100L117 100L100 99z"/>
<path style="fill:#e39866; stroke:none;" d="M117 99L117 100L122 100L117 99z"/>
<path style="fill:#bdafa6; stroke:none;" d="M131 99L132 100L131 99M198 99L199 100L198 99M19 100L20 101L19 100z"/>
<path style="fill:#e39866; stroke:none;" d="M27 100L22 112L23 112L27 100M95 100L96 101L95 100M122 100L122 101L125 104L126 104L122 100z"/>
<path style="fill:#bdafa6; stroke:none;" d="M190 100L191 101L190 100z"/>
<path style="fill:#e39866; stroke:none;" d="M198 100L199 101L198 100z"/>
<path style="fill:#bdafa6; stroke:none;" d="M27 101L28 102L27 101M85 101L86 102L85 101z"/>
<path style="fill:#e39866; stroke:none;" d="M93 101L93 103L95 101L93 101M199.333 101.667L199.667 102.333L199.333 101.667z"/>
<path style="fill:#bdafa6; stroke:none;" d="M18 102L19 103L18 102M124 102L125 103L124 102z"/>
<path style="fill:#e39866; stroke:none;" d="M192.333 102.667L192.667 103.333L192.333 102.667z"/>
<path style="fill:#bdafa6; stroke:none;" d="M416 198L427 198L427 154L486 154L486 198L496.397 195.682L497 175L497 126L496.397 104.318L486 102L486 144L427 144C427 131.866 428.888 118.011 426.852 106.059C426.16 101.999 419.737 100.182 417.028 103.603C413.315 108.29 416 123.155 416 129L416 198M26 103L27 104L26 103z"/>
<path style="fill:#e39866; stroke:none;" d="M92 103L93 104L92 103z"/>
<path style="fill:#bdafa6; stroke:none;" d="M133 103L134 104L133 103z"/>
<path style="fill:#e39866; stroke:none;" d="M200 103L201 107L202 107L200 103z"/>
<path style="fill:#535353; stroke:none;" d="M417 103L417 197L426 197L426 167L427.028 155.318L439 153L473 153L485.972 155.318L487 167L487 197L496 197L496 103L487 103L487 131C487 134.389 487.954 139.713 485.972 142.682C483.371 146.58 475.011 145 471 145L426 145L426 103L417 103z"/>
<path style="fill:#bdafa6; stroke:none;" d="M17 104L18 105L17 104M84 104L85 105L84 104M92 104L93 105L92 104z"/>
<path style="fill:#e39866; stroke:none;" d="M126 104L126 107L127 107L126 104M193.333 104.667L193.667 105.333L193.333 104.667z"/>
<path style="fill:#bdafa6; stroke:none;" d="M201 104L202 105L201 104z"/>
<path style="fill:#e39866; stroke:none;" d="M17 105L16 109L17 109L17 105z"/>
<path style="fill:#bdafa6; stroke:none;" d="M25 105L26 106L25 105z"/>
<path style="fill:#e39866; stroke:none;" d="M84 105L84 109L85 109L84 105M91 105L91 108L92 108L91 105z"/>
<path style="fill:#bdafa6; stroke:none;" d="M16 106L17 107L16 106z"/>
<path style="fill:#e39866; stroke:none;" d="M194.333 106.667L194.667 107.333L194.333 106.667z"/>
<path style="fill:#bdafa6; stroke:none;" d="M24 107L25 108L24 107M126.333 107.667L126.667 108.333L126.333 107.667z"/>
<path style="fill:#e39866; stroke:none;" d="M202 107L203 112L204 112L202 107z"/>
<path style="fill:#bdafa6; stroke:none;" d="M91 108L89 112L91 108z"/>
<path style="fill:#e39866; stroke:none;" d="M195 108L196 112L197 112L195 108M15.3333 109.667L15.6667 110.333L15.3333 109.667z"/>
<path style="fill:#bdafa6; stroke:none;" d="M23 109L24 110L23 109M84 109L85 110L84 109z"/>
<path style="fill:#e39866; stroke:none;" d="M90 109L91 110L90 109z"/>
<path style="fill:#bdafa6; stroke:none;" d="M203 109L204 110L203 109z"/>
<path style="fill:#e39866; stroke:none;" d="M85 110L85 111L89 112L89 111L85 110M89 110L90 111L89 110z"/>
<path style="fill:#bdafa6; stroke:none;" d="M127 110L128 111L127 110M14 111L15 112L14 111M86 111L87 112L86 111z"/>
<path style="fill:#e39866; stroke:none;" d="M14.3333 112.667L14.6667 113.333L14.3333 112.667M21 112L20 117L21 117L21 112M197.333 112.667L197.667 113.333L197.333 112.667M204 112L207 124L208 124L204 112M13 114L12 120L13 120L13 114z"/>
<path style="fill:#bdafa6; stroke:none;" d="M21 114L22 115L21 114M197 114L198 115L197 114M205 114L206 115L205 114z"/>
<path style="fill:#e39866; stroke:none;" d="M198 115L200 123L201 123L198 115z"/>
<path style="fill:#bdafa6; stroke:none;" d="M12 116L13 117L12 116M63 116L63 117L155 117L127 116L63 116z"/>
<path style="fill:#e39866; stroke:none;" d="M19.3333 117.667L19.6667 118.333L19.3333 117.667z"/>
<path style="fill:#bdafa6; stroke:none;" d="M59 117L60 118L59 117z"/>
<path style="fill:#e39866; stroke:none;" d="M50 140L51 140C51 130.011 52.1033 121.234 63 118C50.9473 114.706 50 132.573 50 140z"/>
<path style="fill:#e37328; stroke:none;" d="M63.0008 117.529C53.2124 119.799 51.5094 127.254 50.9105 136C49.9423 150.138 51 164.744 51 179C51 186.3 49.7089 194.858 55.5293 200.442C61.5698 206.238 73.3431 204 81 204L132 204C139.849 204 149.376 205.452 156.999 203.442C162.834 201.904 166.634 196.794 167.671 191C170.485 175.273 168 156.981 168 141C168 133.936 168.23 126.687 162.671 121.39C156.065 115.098 145.332 117 137 117L88 117C80.0324 117 70.7904 115.723 63.0008 117.529z"/>
<path style="fill:#e39866; stroke:none;" d="M156 117L156 118L162 120L162 119L156 117z"/>
<path style="fill:#bdafa6; stroke:none;" d="M158 117L159 118L158 117M198 117L199 118L198 117M206 117L207 118L206 117M57 118L58 119L57 118M160 118L161 119L160 118M19 119L20 120L19 119z"/>
<path style="fill:#e39866; stroke:none;" d="M11 120L9 133L10 133L11 120M18 120L17 127L18 127L18 120M162 120L163 121L162 120z"/>
<path style="fill:#bdafa6; stroke:none;" d="M199 120L200 121L199 120M207 120L208 121L207 120z"/>
<path style="fill:#e39866; stroke:none;" d="M163 121L164 122L163 121M164 122L167 130L168 130L164 122z"/>
<path style="fill:#bdafa6; stroke:none;" d="M10 123L11 124L10 123M18 123L19 124L18 123M52 123L53 124L52 123z"/>
<path style="fill:#e39866; stroke:none;" d="M64 142L64 141C53.1022 138.121 57.0398 125.222 67 124.109C95.5635 120.915 126.241 124 155 124C148.081 121.097 137.48 123 130 123L85 123C78.2126 123 69.5215 121.574 63.0046 123.653C52.9798 126.851 53.7143 140.574 64 142z"/>
<path style="fill:#bdafa6; stroke:none;" d="M200.333 123.667L200.667 124.333L200.333 123.667M51 124L52 125L51 124z"/>
<path style="fill:#fffefe; stroke:none;" d="M95 148C100.591 135.582 117.82 135.309 123 148C128.94 146.463 135 145.285 141 144C145.998 142.93 155.521 142.582 159.397 139.062C164.729 134.22 158.502 125.236 152.999 124.228C128.089 119.665 98.3603 123.998 73 124C66.9036 124 48.707 129.747 58.7423 139.062C62.3792 142.439 71.2814 142.772 76 143.79C82.34 145.159 88.6489 146.69 95 148z"/>
<path style="fill:#bdafa6; stroke:none;" d="M155 124L156 125L155 124z"/>
<path style="fill:#e39866; stroke:none;" d="M156 124L156 125L160 127L156 124z"/>
<path style="fill:#bdafa6; stroke:none;" d="M166 124L167 125L166 124z"/>
<path style="fill:#e39866; stroke:none;" d="M201 124L201 128L202 128L201 124z"/>
<path style="fill:#bdafa6; stroke:none;" d="M208.333 124.667L208.667 125.333L208.333 124.667M591 125L591 126L597 126L597 134L585 136L585 137L598 135L598 125L591 125M632 126L632 127C654.375 125.234 675.464 134.176 676 160C677.961 155.282 676.067 149.531 674.121 145C666.526 127.318 649.235 123.822 632 126M717 125L717 126L731 126L717 125M158 126L159 127L158 126M167 126L168 127L167 126z"/>
<path style="fill:#e39866; stroke:none;" d="M208 126L209 135L210 135L208 126z"/>
<path style="fill:#bdafa6; stroke:none;" d="M524 184L525 184L525 127L534 127L534 197L524 196L524 197L535 198L535 126L525.028 127.603L524 143L524 184M584 138L584 137C564.341 145.5 571 179.865 571 197L562 197L562 127L571 127L571 139L572 139L583 129L583 128L573 136C572.284 133.583 572.552 129.59 570.972 127.603C568.257 124.189 561.841 125.994 561.148 130.059C558.313 146.697 561 166.104 561 183C561 187.513 560.696 204.649 570.397 196.972C574.151 194.001 572 181.379 572 177C572 161.723 570.627 148.219 584 138M584 127L584 128L590 127L584 127z"/>
<path style="fill:#535353; stroke:none;" d="M572 139L571 139L571 127L562 127L562 197L571 197C571 173.354 564.201 136.61 597 134L597 126C586.726 126.085 576.991 129.405 572 139M672 187L672 186L667 181L666 181C655.723 190.373 641.27 193.36 629.015 185.441C625.783 183.353 617.777 176.94 619.422 172.314C620.743 168.6 629.776 168.634 633 167.999C647.009 165.243 661.727 160.614 676 160C675.726 126.914 629.958 111.896 612.529 142C590.31 180.379 641.109 216.459 672 187z"/>
<path style="fill:#bdafa6; stroke:none;" d="M713 126L713 127L717 127L713 126M732 126L732 127L736 127L732 126M9 127L10 128L9 127M17 127L18 128L17 127M50 127L51 128L50 127M159 127L160 128L159 127z"/>
<path style="fill:#535353; stroke:none;" d="M525 127L525 179C525 188.272 522.434 196.959 534 197L534 127L525 127z"/>
<path style="fill:#bdafa6; stroke:none;" d="M629.667 127.333L630.333 127.667L629.667 127.333M710 127L710 128L713 128L710 127M736.667 127.333L737.333 127.667L736.667 127.333z"/>
<path style="fill:#e39866; stroke:none;" d="M16 128L16 131L17 131L16 128M160 128C161.153 132.847 161.835 137.334 157 140L157 141C163.254 139.956 163.328 132.392 160 128M202 128L203 139L204 139L202 128z"/>
<path style="fill:#bdafa6; stroke:none;" d="M209 128L210 129L209 128M626.667 128.333L627.333 128.667L626.667 128.333M708.667 128.333L709.333 128.667L708.667 128.333M739 128L740 129L739 128M160 129L161 130L160 129M168 129L168 158L169 158L168 129M624.667 129.333L625.333 129.667L624.667 129.333M706.667 129.333L707.333 129.667L706.667 129.333M57 130L58 131L57 130M621 132L624 130L621 132M704.667 130.333L705.333 130.667L704.667 130.333M16 131L17 132L16 131M49 131L49 192L50 192L50 151L49 131M703 131L704 132L703 131M8.33333 132.667L8.66667 133.333L8.33333 132.667z"/>
<path style="fill:#e39866; stroke:none;" d="M15 132L14 158L15 158L15 132z"/>
<path style="fill:#bdafa6; stroke:none;" d="M620 132L621 133L620 132M698 136L703 132L698 136M202 133L203 134L202 133M619 133L620 134L619 133M640 133L640 134C648.404 134.669 656.08 137.123 661.468 144.015C663.847 147.058 666.674 151.286 663 154L663 155L667 155C665.736 140.609 653.338 133.574 640 133z"/>
<path style="fill:#e39866; stroke:none;" d="M8 134L7 146L8 146L8 134z"/>
<path style="fill:#bdafa6; stroke:none;" d="M210.333 134.667L210.667 135.333L210.333 134.667M616 137L619 134L616 137M616 164L642 160L642 159L617 163C617.272 149.877 624.851 136.449 639 135C623.757 129.113 616.029 153.411 616 164z"/>
<path style="fill:#fffefe; stroke:none;" d="M617 163L666 154C663.362 136.464 642.344 128.888 628.04 138.549C619.873 144.065 617.078 153.627 617 163z"/>
<path style="fill:#bdafa6; stroke:none;" d="M718 134L718 135L724 135L718 134z"/>
<path style="fill:#fffefe; stroke:none;" d="M724 134.465C688.623 137.72 693.457 192.689 729 188.826C761.112 185.337 756.703 131.455 724 134.465z"/>
<path style="fill:#bdafa6; stroke:none;" d="M728 134L728 135L733 135L728 134M715.667 135.333L716.333 135.667L715.667 135.333M733 135L733 136L736 136L733 135z"/>
<path style="fill:#e39866; stroke:none;" d="M210 136L210 160L211 160L210 136z"/>
<path style="fill:#bdafa6; stroke:none;" d="M697 136L696 139L697 136M713 136L714 137L713 136M736.667 136.333L737.333 136.667L736.667 136.333M7.33333 137.667L7.66667 138.333L7.33333 137.667M615 137L616 138L615 137M711.667 137.333L712.333 137.667L711.667 137.333M738.667 137.333L739.333 137.667L738.667 137.333M57 138L58 139L57 138M614 138L615 139L614 138M708 140L711 138L708 140M740 138L741 139L740 138M15.3333 139.667L15.6667 140.333L15.3333 139.667M100 139L101 140L100 139z"/>
<path style="fill:#e39866; stroke:none;" d="M101 139L101 140L104 140L101 139M115 139L115 140L121 143L115 139z"/>
<path style="fill:#bdafa6; stroke:none;" d="M117 139L118 140L117 139M203 139L203 144L204 144L203 139M613.333 139.667L613.667 140.333L613.333 139.667M695 139L696 140L695 139M741 139L744 141L741 139M61 140L62 141L61 140z"/>
<path style="fill:#e39866; stroke:none;" d="M99.6667 140.333L100.333 140.667L99.6667 140.333z"/>
<path style="fill:#bdafa6; stroke:none;" d="M119 140L120 141L119 140M156 140L157 141L156 140M694.333 140.667L694.667 141.333L694.333 140.667M707 140L708 141L707 140M64.6667 141.333L65.3333 141.667L64.6667 141.333z"/>
<path style="fill:#e39866; stroke:none;" d="M98 141L99 142L98 141z"/>
<path style="fill:#bdafa6; stroke:none;" d="M120 141L121 142L120 141z"/>
<path style="fill:#e39866; stroke:none;" d="M152 141L152 142L156 142L152 141z"/>
<path style="fill:#bdafa6; stroke:none;" d="M612 141L613 142L612 141M706 141L707 142L706 141z"/>
<path style="fill:#e39866; stroke:none;" d="M67 142L67 143L70 143L67 142z"/>
<path style="fill:#bdafa6; stroke:none;" d="M70 142L71 143L70 142z"/>
<path style="fill:#e39866; stroke:none;" d="M97 142L96 147L97 147L97 142z"/>
<path style="fill:#bdafa6; stroke:none;" d="M147 142L148 143L147 142z"/>
<path style="fill:#e39866; stroke:none;" d="M148 142L148 143L151 143L148 142M204 142L204 155L205 155L204 142z"/>
<path style="fill:#bdafa6; stroke:none;" d="M611.333 142.667L611.667 143.333L611.333 142.667M693.333 142.667L693.667 143.333L693.333 142.667M705 142L706 143L705 142M744 142L746 144L746 142L744 142z"/>
<path style="fill:#e39866; stroke:none;" d="M71.6667 143.333L72.3333 143.667L71.6667 143.333z"/>
<path style="fill:#bdafa6; stroke:none;" d="M73.6667 143.333L74.3333 143.667L73.6667 143.333M96 143L97 144L96 143M121 143L122 144L121 143M143 143L144 144L143 143z"/>
<path style="fill:#e39866; stroke:none;" d="M144 143L144 144L147 144L144 143z"/>
<path style="fill:#bdafa6; stroke:none;" d="M704 143L705 144L704 143z"/>
<path style="fill:#e39866; stroke:none;" d="M50 144L50 184C50.0004 189.872 49.5476 196.425 55 200C45.8606 182.535 57.2268 161.222 50 144M76 144L76 145L79 145L76 144z"/>
<path style="fill:#bdafa6; stroke:none;" d="M79 144L80 145L79 144z"/>
<path style="fill:#e39866; stroke:none;" d="M121 144L124 149L121 144z"/>
<path style="fill:#bdafa6; stroke:none;" d="M138 144L139 145L138 144z"/>
<path style="fill:#e39866; stroke:none;" d="M139 144L139 145L142 145L139 144z"/>
<path style="fill:#bdafa6; stroke:none;" d="M211 144L211 152L212 152L211 144M610 144L609 149L610 149L610 144M692.333 144.667L692.667 145.333L692.333 144.667M703.333 144.667L703.667 145.333L703.333 144.667M746 144L747 145L746 144z"/>
<path style="fill:#e39866; stroke:none;" d="M80 145L80 146L83 146L80 145z"/>
<path style="fill:#bdafa6; stroke:none;" d="M83 145L84 146L83 145z"/>
<path style="fill:#e39866; stroke:none;" d="M103.603 146.028C96.2176 151.877 106.594 164.152 114.397 157.972C121.764 152.137 111.305 139.928 103.603 146.028z"/>
<path style="fill:#bdafa6; stroke:none;" d="M134 145L135 146L134 145z"/>
<path style="fill:#e39866; stroke:none;" d="M135 145L135 146L138 146L135 145z"/>
<path style="fill:#bdafa6; stroke:none;" d="M747.333 145.667L747.667 146.333L747.333 145.667z"/>
<path style="fill:#e39866; stroke:none;" d="M84 146L84 147L88 147L84 146z"/>
<path style="fill:#bdafa6; stroke:none;" d="M88 146L89 147L88 146z"/>
<path style="fill:#fffefe; stroke:none;" d="M104 146L104 158C118.06 157.998 118.06 146.002 104 146z"/>
<path style="fill:#bdafa6; stroke:none;" d="M129 146L130 147L129 146z"/>
<path style="fill:#e39866; stroke:none;" d="M130 146L130 147L133 147L130 146M156 147L156 148L161 148L160 194L161 194C164.014 181.341 164.689 158.482 161 146L156 147z"/>
<path style="fill:#bdafa6; stroke:none;" d="M691.333 146.667L691.667 147.333L691.333 146.667M702.333 146.667L702.667 147.333L702.333 146.667z"/>
<path style="fill:#e39866; stroke:none;" d="M56 147C56 159.399 50.1495 191.859 63 198L63 197C51.6619 188.551 57 160.99 57 148L61 148L56 147M89 147L89 148L92 148L89 147z"/>
<path style="fill:#bdafa6; stroke:none;" d="M92 147L93 148L92 147M95 147L96 148L95 147M103 147L103 157L104 157L103 147M124.667 147.333L125.333 147.667L124.667 147.333z"/>
<path style="fill:#e39866; stroke:none;" d="M126.667 147.333L127.333 147.667L126.667 147.333z"/>
<path style="fill:#bdafa6; stroke:none;" d="M748.333 147.667L748.667 148.333L748.333 147.667z"/>
<path style="fill:#fffefe; stroke:none;" d="M57 148L57 180C57 184.795 56.1923 190.723 59.6528 194.606C64.5384 200.088 75.4342 198 82 198L137 198C143.519 198 153.592 199.88 158.566 194.606C161.882 191.09 161 185.432 161 181L161 148C151.031 148.435 134.02 150.833 125.228 155.653C118.658 159.254 119.386 165.784 110 165.985C99.4652 166.209 100.294 159.406 92.8557 155.703C83.3337 150.963 67.5571 148.84 57 148z"/>
<path style="fill:#bdafa6; stroke:none;" d="M61.6667 148.333L62.3333 148.667L61.6667 148.333z"/>
<path style="fill:#e39866; stroke:none;" d="M63 148L63 149L66 149L63 148M93 148L93 149L96 149L93 148M147 149L147 150L155 149L147 149z"/>
<path style="fill:#bdafa6; stroke:none;" d="M155 148L156 149L155 148M690 148L690 152L691 152L690 148M701.333 148.667L701.667 149.333L701.333 148.667M66 149L67 150L66 149z"/>
<path style="fill:#e39866; stroke:none;" d="M67 149L67 150L71 150L67 149z"/>
<path style="fill:#bdafa6; stroke:none;" d="M151 149L152 150L151 149M608 149L608 152L609 152L608 149M749.333 149.667L749.667 150.333L749.333 149.667M70.6667 150.333L71.3333 150.667L70.6667 150.333z"/>
<path style="fill:#e39866; stroke:none;" d="M72 150L72 151L75 151L72 150M143 150L143 151L146 151L143 150z"/>
<path style="fill:#bdafa6; stroke:none;" d="M146 150L147 151L146 150M700 150L700 153L701 153L700 150M75 151L76 152L75 151z"/>
<path style="fill:#e39866; stroke:none;" d="M76 151L76 152L80 152L76 151M138 151L138 152L142 152L138 151z"/>
<path style="fill:#bdafa6; stroke:none;" d="M142 151L143 152L142 151M750 151L750 154L751 154L750 151z"/>
<path style="fill:#e39866; stroke:none;" d="M80 152L80 153L84 153L80 152M134 152L134 153L137 153L134 152z"/>
<path style="fill:#bdafa6; stroke:none;" d="M137 152L138 153L137 152M689 152L689 157L690 157L689 152z"/>
<path style="fill:#e39866; stroke:none;" d="M7 153L8 163L9 163L7 153z"/>
<path style="fill:#bdafa6; stroke:none;" d="M84 153L85 154L84 153z"/>
<path style="fill:#e39866; stroke:none;" d="M85 153L85 154L93 155L85 153M130 153L130 154L133 154L130 153z"/>
<path style="fill:#bdafa6; stroke:none;" d="M133 153L134 154L133 153M203 153L203 160L204 160L203 153M607 153L607 170L608 170L607 153M699 153L699 158L700 158L699 153M88 154L89 155L88 154z"/>
<path style="fill:#e39866; stroke:none;" d="M120 162L121 162C122.546 157.934 123.57 155.924 128 155C122.72 153.186 121.178 157.686 120 162z"/>
<path style="fill:#bdafa6; stroke:none;" d="M128 154L129 155L128 154M93 155L94 156L93 155z"/>
<path style="fill:#e39866; stroke:none;" d="M94.6667 155.333L95.3333 155.667L94.6667 155.333z"/>
<path style="fill:#bdafa6; stroke:none;" d="M124 155L125 156L124 155M658 155L658 156L662 156L658 155M751 155L751 168L752 168L751 155M95 156L96 157L95 156M122.333 156.667L122.667 157.333L122.333 156.667M653 156L653 157L657 157L653 156M7 157L7 160L8 160L7 157M15.3333 157.667L15.6667 158.333L15.3333 157.667z"/>
<path style="fill:#e39866; stroke:none;" d="M96 157L100 164L96 157z"/>
<path style="fill:#bdafa6; stroke:none;" d="M114 157L115 158L114 157M648 157L648 158L652 158L648 157z"/>
<path style="fill:#e39866; stroke:none;" d="M168 158L169 159L168 158z"/>
<path style="fill:#bdafa6; stroke:none;" d="M643 158L643 159L648 159L643 158z"/>
<path style="fill:#e39866; stroke:none;" d="M15 159L15 165L16 165L15 159z"/>
<path style="fill:#bdafa6; stroke:none;" d="M168 159L168 192L169 192L168 159M698 159L698 164L699 164L698 159M96 160L97 161L96 160z"/>
<path style="fill:#e39866; stroke:none;" d="M203 160L203 164L204 164L203 160z"/>
<path style="fill:#bdafa6; stroke:none;" d="M210 160L210 163L211 163L210 160M670 160L670 161L675 161L670 160M121 161L122 162L121 161M665 161L665 162L670 162L665 161M97 162L98 163L97 162M120 162L121 163L120 162M660 162L660 163L665 163L660 162M8.33333 163.667L8.66667 164.333L8.33333 163.667M98 163L99 164L98 163z"/>
<path style="fill:#e39866; stroke:none;" d="M116 164L116 165L120 164L116 164M209 163L209 168L210 168L209 163z"/>
<path style="fill:#bdafa6; stroke:none;" d="M655 163L655 164L660 164L655 163z"/>
<path style="fill:#e39866; stroke:none;" d="M9 164L9 168L10 168L9 164M100.667 164.333L101.333 164.667L100.667 164.333z"/>
<path style="fill:#bdafa6; stroke:none;" d="M118 164L119 165L118 164M202 164L203 165L202 164M650 164L650 165L655 165L650 164M16.3333 165.667L16.6667 166.333L16.3333 165.667M102.667 165.333L103.333 165.667L102.667 165.333z"/>
<path style="fill:#e39866; stroke:none;" d="M104 165L104 166L115 166L104 165z"/>
<path style="fill:#bdafa6; stroke:none;" d="M115 165L116 166L115 165z"/>
<path style="fill:#e39866; stroke:none;" d="M202 165L200 177L201 177L202 165z"/>
<path style="fill:#bdafa6; stroke:none;" d="M645 165L645 166L650 166L645 165M699 165L699 170L700 170L699 165M640 166L640 167L645 167L640 166z"/>
<path style="fill:#e39866; stroke:none;" d="M16 167L16 170L17 170L16 167z"/>
<path style="fill:#bdafa6; stroke:none;" d="M635 167L635 168L639 168L635 167M689 167L689 172L690 172L689 167M9.33333 168.667L9.66667 169.333L9.33333 168.667M201.333 168.667L201.667 169.333L201.333 168.667z"/>
<path style="fill:#e39866; stroke:none;" d="M208 168L208 172L209 172L208 168z"/>
<path style="fill:#bdafa6; stroke:none;" d="M630 168L630 169L635 169L630 168z"/>
<path style="fill:#e39866; stroke:none;" d="M10 169L10 173L11 173L10 169z"/>
<path style="fill:#bdafa6; stroke:none;" d="M624 169L624 170L630 170L624 169M750 169L750 172L751 172L750 169M17 170L18 171L17 170M623 180L619 172L624 171C616.205 168.038 619.516 177.003 623 180M700 170L700 173L701 173L700 170z"/>
<path style="fill:#e39866; stroke:none;" d="M17 171L17 174L18 174L17 171z"/>
<path style="fill:#bdafa6; stroke:none;" d="M608 171L608 174L609 174L608 171M208 172L209 173L208 172M690 172L690 175L691 175L690 172M749 172L749 175L750 175L749 172M10.3333 173.667L10.6667 174.333L10.3333 173.667M200 173L201 174L200 173z"/>
<path style="fill:#e39866; stroke:none;" d="M207 173L206 179L207 179L207 173z"/>
<path style="fill:#bdafa6; stroke:none;" d="M701 173L701 176L702 176L701 173z"/>
<path style="fill:#e39866; stroke:none;" d="M11 174L11 177L12 177L11 174z"/>
<path style="fill:#bdafa6; stroke:none;" d="M18 174L19 175L18 174M609 174L609 177L610 177L609 174z"/>
<path style="fill:#e39866; stroke:none;" d="M18 175L20 183L21 183L18 175z"/>
<path style="fill:#bdafa6; stroke:none;" d="M748.333 175.667L748.667 176.333L748.333 175.667M207 176L208 177L207 176M691.333 176.667L691.667 177.333L691.333 176.667M702 176L704 179L702 176M11 177L12 178L11 177M19 177L20 178L19 177M199 177L200 178L199 177M610.333 177.667L610.667 178.333L610.333 177.667M747 177L748 178L747 177z"/>
<path style="fill:#e39866; stroke:none;" d="M12 178L13 183L14 183L12 178M199 178L192 195L193 195C195.742 190.302 200.171 183.577 199 178z"/>
<path style="fill:#bdafa6; stroke:none;" d="M692.333 178.667L692.667 179.333L692.333 178.667M746.333 178.667L746.667 179.333L746.333 178.667M198 179L199 180L198 179M206.333 179.667L206.667 180.333L206.333 179.667M611.333 179.667L611.667 180.333L611.333 179.667M704 179L705 180L704 179M12 180L13 181L12 180M20 180L21 181L20 180z"/>
<path style="fill:#e39866; stroke:none;" d="M205 180L205 183L206 183L205 180z"/>
<path style="fill:#bdafa6; stroke:none;" d="M623 180L624 181L623 180M666 180L670 184L666 180M693.333 180.667L693.667 181.333L693.333 180.667M705 180L709 184L705 180M745 180L746 181L745 180M612 181L614 184L612 181M624 181L624 183L626 183L624 181M665 181L666 182L665 181M744 181L745 182L744 181M197 182L198 183L197 182M664 182L665 183L664 182M694 182L696 185L694 182M743 182L744 183L743 182M13 183L14 184L13 183M21 183L22 184L21 183z"/>
<path style="fill:#e39866; stroke:none;" d="M204 183L203 188L204 188L204 183z"/>
<path style="fill:#bdafa6; stroke:none;" d="M626 183L627 184L626 183M663 183L664 184L663 183M742 183L743 184L742 183z"/>
<path style="fill:#e39866; stroke:none;" d="M14 184L15 188L16 188L14 184M21.3333 184.667L21.6667 185.333L21.3333 184.667z"/>
<path style="fill:#bdafa6; stroke:none;" d="M614 184L616 187L614 184M627 184L628 185L627 184M661.667 184.333L662.333 184.667L661.667 184.333M670 184L671 185L670 184M709 184L710 185L709 184M739 186L742 184L739 186M751 184L750 187L751 184M196 185L197 186L196 185M204 185L205 186L204 185M628.667 185.333L629.333 185.667L628.667 185.333M660 185L661 186L660 185M671 185L672 186L671 185M696 185L697 186L696 185M710.667 185.333L711.333 185.667L710.667 185.333M14 186L15 187L14 186z"/>
<path style="fill:#e39866; stroke:none;" d="M22.3333 186.667L22.6667 187.333L22.3333 186.667z"/>
<path style="fill:#bdafa6; stroke:none;" d="M630.667 186.333L631.333 186.667L630.667 186.333M658.667 186.333L659.333 186.667L658.667 186.333M697 186L698 187L697 186M712.667 186.333L713.333 186.667L712.667 186.333M737.667 186.333L738.333 186.667L737.667 186.333M195 187L196 188L195 187M616 187L621 191L616 187M632 187L632 188L635 188L632 187M656.667 187.333L657.333 187.667L656.667 187.333M671 187L672 188L671 187M698 187L699 188L698 187M714.667 187.333L715.333 187.667L714.667 187.333M735.667 187.333L736.333 187.667L735.667 187.333M749 187L750 188L749 187M15 188L16 189L15 188z"/>
<path style="fill:#e39866; stroke:none;" d="M23.3333 188.667L23.6667 189.333L23.3333 188.667M202 188L197 200L198 200L202 188z"/>
<path style="fill:#bdafa6; stroke:none;" d="M635 188L635 189L638 189L635 188M652 188L652 189L655 189L652 188M670 188L671 189L670 188M699 188L700 189L699 188M716 188L716 189L719 189L716 188M731 188L731 189L734 189L731 188M748 188L749 189L748 188z"/>
<path style="fill:#e39866; stroke:none;" d="M16.3333 189.667L16.6667 190.333L16.3333 189.667z"/>
<path style="fill:#bdafa6; stroke:none;" d="M194 189L195 190L194 189M638 189L638 190L652 190L638 189M669 189L670 190L669 189M700 189L701 190L700 189M720 189L720 190L731 190L720 189M747 189L748 190L747 189M24 190L25 191L24 190M202 190L203 191L202 190M668 190L669 191L668 190M701 190L702 191L701 190M746 190L747 191L746 190z"/>
<path style="fill:#e39866; stroke:none;" d="M17.3333 191.667L17.6667 192.333L17.3333 191.667M24 191L25 192L24 191z"/>
<path style="fill:#bdafa6; stroke:none;" d="M57 191L58 192L57 191M193 191L194 192L193 191M621 191L622 192L621 191M667 191L668 192L667 191M702 191L703 192L702 191M745 191L746 192L745 191z"/>
<path style="fill:#e39866; stroke:none;" d="M25.3333 192.667L25.6667 193.333L25.3333 192.667M167 192L164 200L165 200L167 192z"/>
<path style="fill:#bdafa6; stroke:none;" d="M201 192L202 193L201 192M622.667 192.333L623.333 192.667L622.667 192.333M665.667 192.333L666.333 192.667L665.667 192.333M704 192L705 193L704 192M743.667 192.333L744.333 192.667L743.667 192.333z"/>
<path style="fill:#e39866; stroke:none;" d="M18.3333 193.667L18.6667 194.333L18.3333 193.667z"/>
<path style="fill:#bdafa6; stroke:none;" d="M58 193L59 194L58 193M192 193L193 194L192 193M524.333 193.667L524.667 194.333L524.333 193.667M624.667 193.333L625.333 193.667L624.667 193.333M664 193L665 194L664 193M705.667 193.333L706.333 193.667L705.667 193.333M742 193L743 194L742 193z"/>
<path style="fill:#e39866; stroke:none;" d="M26 194L31 202L26 194z"/>
<path style="fill:#bdafa6; stroke:none;" d="M50 194L51 195L50 194M159 194L160 195L159 194M200 194L201 195L200 194M626.667 194.333L627.333 194.667L626.667 194.333M659 195L659 196L664 195L659 195M707.667 194.333L708.333 194.667L707.667 194.333M740.667 194.333L741.333 194.667L740.667 194.333z"/>
<path style="fill:#e39866; stroke:none;" d="M19.3333 195.667L19.6667 196.333L19.3333 195.667z"/>
<path style="fill:#bdafa6; stroke:none;" d="M27 195L28 196L27 195z"/>
<path style="fill:#e39866; stroke:none;" d="M155 197L155 198L160 196L155 197z"/>
<path style="fill:#bdafa6; stroke:none;" d="M167 195L168 196L167 195M191 195L192 196L191 195M628.667 195.333L629.333 195.667L628.667 195.333M709.667 195.333L710.333 195.667L709.667 195.333M738.667 195.333L739.333 195.667L738.667 195.333M51 196L52 197L51 196M61 196L62 197L61 196M156 196L157 197L156 196z"/>
<path style="fill:#e39866; stroke:none;" d="M191 196L192 197L191 196z"/>
<path style="fill:#bdafa6; stroke:none;" d="M199 196L200 197L199 196M630 196L630 197L633 197L630 196M656 196L656 197L659 197L656 196M711 196L711 197L714 197L711 196M735 196L735 197L738 197L735 196z"/>
<path style="fill:#e39866; stroke:none;" d="M20 197L23 204L24 204L20 197z"/>
<path style="fill:#bdafa6; stroke:none;" d="M28 197L29 198L28 197M63 197L64 198L63 197M154 197L155 198L154 197M166 197L167 198L166 197z"/>
<path style="fill:#e39866; stroke:none;" d="M190 197L188 202L189 202L190 197z"/>
<path style="fill:#bdafa6; stroke:none;" d="M633 197L633 198L638 198L633 197M652 197L652 198L656 198L652 197M714 197L714 198L718 198L714 197M731 197L731 198L734 198L731 197M52 198L53 199L52 198M165 198L166 199L165 198M189 198L190 199L189 198M198 198L199 199L198 198M638 198L638 199L651 199L638 198M719 198L719 199L730 199L719 198M29 199L30 200L29 199M21 200L22 201L21 200M30 200L31 201L30 200M54 200L55 201L54 200z"/>
<path style="fill:#e39866; stroke:none;" d="M163 200L164 201L163 200M196 200L194 205L195 205L196 200z"/>
<path style="fill:#bdafa6; stroke:none;" d="M55 201L57 203L55 201z"/>
<path style="fill:#e39866; stroke:none;" d="M56 201L57 202L56 201M160 203L163 202L160 203z"/>
<path style="fill:#bdafa6; stroke:none;" d="M22 202L23 203L22 202z"/>
<path style="fill:#e39866; stroke:none;" d="M31 202L33 205L31 202M57 202L58 203L57 202z"/>
<path style="fill:#bdafa6; stroke:none;" d="M161 202L162 203L161 202z"/>
<path style="fill:#e39866; stroke:none;" d="M187 202L185 206L187 202z"/>
<path style="fill:#bdafa6; stroke:none;" d="M32 203L33 204L32 203z"/>
<path style="fill:#e39866; stroke:none;" d="M58 203L58 204L61 204L58 203M157 203L157 204L160 204L157 203z"/>
<path style="fill:#bdafa6; stroke:none;" d="M186 203L187 204L186 203M195 203L196 204L195 203z"/>
<path style="fill:#e39866; stroke:none;" d="M24 204L26 208L27 208L24 204z"/>
<path style="fill:#bdafa6; stroke:none;" d="M61 204L62 205L61 204z"/>
<path style="fill:#e39866; stroke:none;" d="M62 204L62 205L156 205L127 204L62 204z"/>
<path style="fill:#bdafa6; stroke:none;" d="M156.667 204.333L157.333 204.667L156.667 204.333M185 204L186 205L185 204M24 205L25 206L24 205z"/>
<path style="fill:#e39866; stroke:none;" d="M33 205L36 209L33 205M193 205L192 208L193 208L193 205M184 206L185 207L184 206z"/>
<path style="fill:#bdafa6; stroke:none;" d="M193 206L194 207L193 206M35 207L36 208L35 207M183 207L181 210L183 207z"/>
<path style="fill:#e39866; stroke:none;" d="M27 208L28 211L29 211L27 208M183 208L184 209L183 208M191 208L188 213L189 213L191 208z"/>
<path style="fill:#bdafa6; stroke:none;" d="M27 209L28 210L27 209z"/>
<path style="fill:#e39866; stroke:none;" d="M36 209L37 210L36 209M182 209L183 210L182 209z"/>
<path style="fill:#bdafa6; stroke:none;" d="M191 209L192 210L191 209z"/>
<path style="fill:#e39866; stroke:none;" d="M37 210L38 211L37 210M181 210L182 211L181 210z"/>
<path style="fill:#bdafa6; stroke:none;" d="M190 210L191 211L190 210z"/>
<path style="fill:#e39866; stroke:none;" d="M29 211L33 217L34 217L29 211M38 211L38 213L40 213L38 211M180 211L181 212L180 211z"/>
<path style="fill:#bdafa6; stroke:none;" d="M29 212L30 213L29 212z"/>
<path style="fill:#e39866; stroke:none;" d="M179 212L180 213L179 212z"/>
<path style="fill:#bdafa6; stroke:none;" d="M30 213L31 214L30 213z"/>
<path style="fill:#e39866; stroke:none;" d="M40 213L46 219L40 213M178 213L176 216L178 213M187 213L188 214L187 213z"/>
<path style="fill:#bdafa6; stroke:none;" d="M31 214L32 215L31 214z"/>
<path style="fill:#e39866; stroke:none;" d="M186 214C182.363 221.257 190.224 226.224 195 231L223 259C227.084 263.084 232.521 266.78 232 273L233 273C234.617 265.658 225.805 259.349 220.91 254.715C210.527 244.883 187.301 228.444 186 214z"/>
<path style="fill:#bdafa6; stroke:none;" d="M42 215L43 216L42 215M186 215L187 216L186 215z"/>
<path style="fill:#e39866; stroke:none;" d="M175 216L173 219L175 216M34 217L35 218L34 217M35 218L36 219L35 218M36 219L37 220L36 219M46 219L46 221L48 221L46 219M172 219L173 220L172 219z"/>
<path style="fill:#bdafa6; stroke:none;" d="M185 219L186 220L185 219z"/>
<path style="fill:#e39866; stroke:none;" d="M37 220L38 221L37 220M171 220L172 221L171 220z"/>
<path style="fill:#bdafa6; stroke:none;" d="M186 220L187 221L186 220z"/>
<path style="fill:#e39866; stroke:none;" d="M38 221L39 222L38 221M48 221L49 222L48 221z"/>
<path style="fill:#bdafa6; stroke:none;" d="M169 221L167 224L169 221z"/>
<path style="fill:#e39866; stroke:none;" d="M170 221L171 222L170 221z"/>
<path style="fill:#bdafa6; stroke:none;" d="M187 221L188 222L187 221z"/>
<path style="fill:#e39866; stroke:none;" d="M39 222L40 223L39 222M49 222L51 224L49 222z"/>
<path style="fill:#bdafa6; stroke:none;" d="M50 222L51 223L50 222z"/>
<path style="fill:#e39866; stroke:none;" d="M169 222L170 223L169 222z"/>
<path style="fill:#bdafa6; stroke:none;" d="M188 222L189 223L188 222z"/>
<path style="fill:#e39866; stroke:none;" d="M40 223L41 224L40 223z"/>
<path style="fill:#bdafa6; stroke:none;" d="M51 223L52 224L51 223z"/>
<path style="fill:#e39866; stroke:none;" d="M168 223L169 224L168 223M174 227L180 224L174 227z"/>
<path style="fill:#bdafa6; stroke:none;" d="M189 223L190 224L189 223z"/>
<path style="fill:#e39866; stroke:none;" d="M41 224L42 225L41 224M52 224L53 225L52 224M166 224L167 225L166 224z"/>
<path style="fill:#bdafa6; stroke:none;" d="M177 224L178 225L177 224z"/>
<path style="fill:#e39866; stroke:none;" d="M180 224L181 225L180 224M42 225L42 226L46 228L42 225M53 225L56 227L56 226L53 225z"/>
<path style="fill:#bdafa6; stroke:none;" d="M54 225L55 226L54 225M164 225L165 226L164 225z"/>
<path style="fill:#e39866; stroke:none;" d="M165 225L166 226L165 225z"/>
<path style="fill:#bdafa6; stroke:none;" d="M176 225L177 226L176 225z"/>
<path style="fill:#e39866; stroke:none;" d="M181 225L182 226L181 225z"/>
<path style="fill:#bdafa6; stroke:none;" d="M43 226L44 227L43 226z"/>
<path style="fill:#e39866; stroke:none;" d="M163.667 226.333L164.333 226.667L163.667 226.333z"/>
<path style="fill:#bdafa6; stroke:none;" d="M175 226L176 227L175 226z"/>
<path style="fill:#e39866; stroke:none;" d="M182 226L183 227L182 226z"/>
<path style="fill:#bdafa6; stroke:none;" d="M192 226L193 227L192 226M44 227L45 228L44 227z"/>
<path style="fill:#e39866; stroke:none;" d="M56 227L59 229L59 228L56 227z"/>
<path style="fill:#bdafa6; stroke:none;" d="M57 227L58 228L57 227M161 227L162 228L161 227z"/>
<path style="fill:#e39866; stroke:none;" d="M162 227L163 228L162 227M173 227L174 228L173 227M183 227L184 228L183 227z"/>
<path style="fill:#bdafa6; stroke:none;" d="M193 227L194 228L193 227z"/>
<path style="fill:#e39866; stroke:none;" d="M46 228L47 229L46 228M160.667 228.333L161.333 228.667L160.667 228.333M172 228L173 229L172 228M184 228L185 229L184 228z"/>
<path style="fill:#bdafa6; stroke:none;" d="M194 228L195 229L194 228z"/>
<path style="fill:#e39866; stroke:none;" d="M47 229L48 230L47 229M59 229L59 230L64 232L64 231L59 229z"/>
<path style="fill:#bdafa6; stroke:none;" d="M60 229L61 230L60 229M158 229L159 230L158 229z"/>
<path style="fill:#e39866; stroke:none;" d="M159 229L160 230L159 229M169 231L172 230L169 231M185 229L186 230L185 229z"/>
<path style="fill:#bdafa6; stroke:none;" d="M195 229L196 230L195 229z"/>
<path style="fill:#e39866; stroke:none;" d="M48 230L48 231L51 232L48 230z"/>
<path style="fill:#bdafa6; stroke:none;" d="M62 230L63 231L62 230M156 230L157 231L156 230z"/>
<path style="fill:#e39866; stroke:none;" d="M157.667 230.333L158.333 230.667L157.667 230.333z"/>
<path style="fill:#bdafa6; stroke:none;" d="M170 230L171 231L170 230z"/>
<path style="fill:#e39866; stroke:none;" d="M186 230L187 231L186 230z"/>
<path style="fill:#bdafa6; stroke:none;" d="M196 230L197 231L196 230M49 231L50 232L49 231z"/>
<path style="fill:#e39866; stroke:none;" d="M155.667 231.333L156.333 231.667L155.667 231.333M168 231L169 232L168 231M187 231L188 232L187 231z"/>
<path style="fill:#bdafa6; stroke:none;" d="M197 231L198 232L197 231M51 232L53 234L51 232z"/>
<path style="fill:#e39866; stroke:none;" d="M52 232L53 233L52 232M64 232L67 234L67 233L64 232z"/>
<path style="fill:#bdafa6; stroke:none;" d="M65 232L66 233L65 232z"/>
<path style="fill:#e39866; stroke:none;" d="M153.667 232.333L154.333 232.667L153.667 232.333M166 232L167 233L166 232z"/>
<path style="fill:#bdafa6; stroke:none;" d="M167 232L168 233L167 232z"/>
<path style="fill:#e39866; stroke:none;" d="M188 232L189 233L188 232z"/>
<path style="fill:#bdafa6; stroke:none;" d="M198 232L199 233L198 232z"/>
<path style="fill:#e39866; stroke:none;" d="M53 233L54 234L53 233z"/>
<path style="fill:#bdafa6; stroke:none;" d="M67 233L68 234L67 233M151 233L152 234L151 233z"/>
<path style="fill:#e39866; stroke:none;" d="M152 233L153 234L152 233M163 235L166 234L163 235M189 233L190 234L189 233z"/>
<path style="fill:#bdafa6; stroke:none;" d="M199 233L200 234L199 233z"/>
<path style="fill:#e39866; stroke:none;" d="M54.6667 234.333L55.3333 234.667L54.6667 234.333M68.6667 234.333L69.3333 234.667L68.6667 234.333M149.667 234.333L150.333 234.667L149.667 234.333z"/>
<path style="fill:#bdafa6; stroke:none;" d="M164 234L165 235L164 234z"/>
<path style="fill:#e39866; stroke:none;" d="M190 234L191 235L190 234z"/>
<path style="fill:#bdafa6; stroke:none;" d="M200 234L201 235L200 234z"/>
<path style="fill:#e39866; stroke:none;" d="M56 235L56 236L59 237L56 235M70.6667 235.333L71.3333 235.667L70.6667 235.333z"/>
<path style="fill:#bdafa6; stroke:none;" d="M146 235L147 236L146 235z"/>
<path style="fill:#e39866; stroke:none;" d="M147.667 235.333L148.333 235.667L147.667 235.333M160 237L163 236L160 237M191 235L192 236L191 235z"/>
<path style="fill:#bdafa6; stroke:none;" d="M201 235L202 236L201 235M57 236L58 237L57 236z"/>
<path style="fill:#e39866; stroke:none;" d="M72 236L72 237L80 239L80 238L72 236z"/>
<path style="fill:#bdafa6; stroke:none;" d="M74 236L75 237L74 236M144 236L145 237L144 236z"/>
<path style="fill:#e39866; stroke:none;" d="M145.667 236.333L146.333 236.667L145.667 236.333z"/>
<path style="fill:#bdafa6; stroke:none;" d="M161 236L162 237L161 236z"/>
<path style="fill:#e39866; stroke:none;" d="M192 236L193 237L192 236z"/>
<path style="fill:#bdafa6; stroke:none;" d="M202 236L203 237L202 236z"/>
<path style="fill:#e39866; stroke:none;" d="M59.6667 237.333L60.3333 237.667L59.6667 237.333z"/>
<path style="fill:#bdafa6; stroke:none;" d="M77 237L78 238L77 237M141 237L142 238L141 237z"/>
<path style="fill:#e39866; stroke:none;" d="M142.667 237.333L143.333 237.667L142.667 237.333M158.667 237.333L159.333 237.667L158.667 237.333M193 237L194 238L193 237z"/>
<path style="fill:#bdafa6; stroke:none;" d="M203 237L204 238L203 237z"/>
<path style="fill:#e39866; stroke:none;" d="M61 238L61 239L64 240L61 238z"/>
<path style="fill:#bdafa6; stroke:none;" d="M138 238L139 239L138 238z"/>
<path style="fill:#e39866; stroke:none;" d="M139 238L139 239L142 239L139 238M156.667 238.333L157.333 238.667L156.667 238.333M194 238L195 239L194 238z"/>
<path style="fill:#bdafa6; stroke:none;" d="M204 238L205 239L204 238M62 239L63 240L62 239z"/>
<path style="fill:#e39866; stroke:none;" d="M80.6667 239.333L81.3333 239.667L80.6667 239.333z"/>
<path style="fill:#bdafa6; stroke:none;" d="M82 239L83 240L82 239z"/>
<path style="fill:#e39866; stroke:none;" d="M136 239L136 240L139 240L136 239M154.667 239.333L155.333 239.667L154.667 239.333M195 239L196 240L195 239z"/>
<path style="fill:#bdafa6; stroke:none;" d="M205 239L206 240L205 239M64 240L65 241L64 240z"/>
<path style="fill:#e39866; stroke:none;" d="M65 240L65 241L69 242L69 241L65 240M84 240L84 241L87 241L84 240z"/>
<path style="fill:#bdafa6; stroke:none;" d="M131 240L132 241L131 240z"/>
<path style="fill:#e39866; stroke:none;" d="M132 240L132 241L135 241L132 240M152.667 240.333L153.333 240.667L152.667 240.333M196 240L197 241L196 240z"/>
<path style="fill:#bdafa6; stroke:none;" d="M66 241L67 242L66 241z"/>
<path style="fill:#e39866; stroke:none;" d="M88 241L88 242L91 242L88 241z"/>
<path style="fill:#bdafa6; stroke:none;" d="M91 241L92 242L91 241z"/>
<path style="fill:#e39866; stroke:none;" d="M128 241L128 242L131 242L128 241M150.667 241.333L151.333 241.667L150.667 241.333M197 241L198 242L197 241M69 242L69 243L74 244L74 243L69 242M93 242L93 243L97 243L93 242z"/>
<path style="fill:#bdafa6; stroke:none;" d="M97.6667 242.333L98.3333 242.667L97.6667 242.333M120.667 242.333L121.333 242.667L120.667 242.333z"/>
<path style="fill:#e39866; stroke:none;" d="M122 242L122 243L126 243L122 242M145 243L145 244L149 243L145 243z"/>
<path style="fill:#bdafa6; stroke:none;" d="M149 242L150 243L149 242z"/>
<path style="fill:#e39866; stroke:none;" d="M198 242L199 243L198 242z"/>
<path style="fill:#bdafa6; stroke:none;" d="M208 242L209 243L208 242M71 243L72 244L71 243z"/>
<path style="fill:#e39866; stroke:none;" d="M100 243L100 244L119 244L100 243z"/>
<path style="fill:#bdafa6; stroke:none;" d="M147 243L148 244L147 243z"/>
<path style="fill:#e39866; stroke:none;" d="M199 243L200 244L199 243z"/>
<path style="fill:#bdafa6; stroke:none;" d="M209 243L210 244L209 243M74 244L75 245L74 244z"/>
<path style="fill:#e39866; stroke:none;" d="M75 244L75 245L80 246L80 245L75 244M142.667 244.333L143.333 244.667L142.667 244.333z"/>
<path style="fill:#bdafa6; stroke:none;" d="M144 244L145 245L144 244z"/>
<path style="fill:#e39866; stroke:none;" d="M200 244L201 245L200 244z"/>
<path style="fill:#bdafa6; stroke:none;" d="M210 244L211 245L210 244M76 245L77 246L76 245z"/>
<path style="fill:#e39866; stroke:none;" d="M139 245L139 246L142 246L139 245M201 245L202 246L201 245z"/>
<path style="fill:#bdafa6; stroke:none;" d="M211 245L212 246L211 245z"/>
<path style="fill:#e39866; stroke:none;" d="M80 246L80 247L88 248L80 246M135 246L135 247L138 247L135 246z"/>
<path style="fill:#bdafa6; stroke:none;" d="M138 246L139 247L138 246z"/>
<path style="fill:#e39866; stroke:none;" d="M202 246L203 247L202 246z"/>
<path style="fill:#bdafa6; stroke:none;" d="M212 246L213 247L212 246M83 247L84 248L83 247z"/>
<path style="fill:#e39866; stroke:none;" d="M131 247L131 248L135 248L131 247M203 247L204 248L203 247z"/>
<path style="fill:#bdafa6; stroke:none;" d="M213 247L214 248L213 247z"/>
<path style="fill:#e39866; stroke:none;" d="M88 248L88 249L101 250L88 248M126 248L126 249L130 249L126 248z"/>
<path style="fill:#bdafa6; stroke:none;" d="M130 248L131 249L130 248z"/>
<path style="fill:#e39866; stroke:none;" d="M204 248L205 249L204 248z"/>
<path style="fill:#bdafa6; stroke:none;" d="M214 248L215 249L214 248M92 249L93 250L92 249z"/>
<path style="fill:#e39866; stroke:none;" d="M118 249L118 250L125 250L118 249z"/>
<path style="fill:#bdafa6; stroke:none;" d="M125.667 249.333L126.333 249.667L125.667 249.333z"/>
<path style="fill:#e39866; stroke:none;" d="M205 249L206 250L205 249z"/>
<path style="fill:#bdafa6; stroke:none;" d="M215 249L216 250L215 249M101 250L101 251L104 251L101 250z"/>
<path style="fill:#e39866; stroke:none;" d="M104 250L104 251L114 251L104 250z"/>
<path style="fill:#bdafa6; stroke:none;" d="M114 250L114 251L118 251L114 250z"/>
<path style="fill:#e39866; stroke:none;" d="M206 250L207 251L206 250z"/>
<path style="fill:#bdafa6; stroke:none;" d="M216 250L217 251L216 250z"/>
<path style="fill:#e39866; stroke:none;" d="M207 251L208 252L207 251z"/>
<path style="fill:#bdafa6; stroke:none;" d="M217 251L218 252L217 251z"/>
<path style="fill:#e39866; stroke:none;" d="M208 252L209 253L208 252z"/>
<path style="fill:#bdafa6; stroke:none;" d="M218 252L219 253L218 252z"/>
<path style="fill:#e39866; stroke:none;" d="M209 253L210 254L209 253z"/>
<path style="fill:#bdafa6; stroke:none;" d="M219 253L220 254L219 253z"/>
<path style="fill:#e39866; stroke:none;" d="M210 254L211 255L210 254z"/>
<path style="fill:#bdafa6; stroke:none;" d="M220 254L221 255L220 254z"/>
<path style="fill:#e39866; stroke:none;" d="M211 255L212 256L211 255z"/>
<path style="fill:#bdafa6; stroke:none;" d="M221 255L222 256L221 255z"/>
<path style="fill:#e39866; stroke:none;" d="M212 256L213 257L212 256M213 257L214 258L213 257M214 258L215 259L214 258z"/>
<path style="fill:#bdafa6; stroke:none;" d="M224 258L225 259L224 258z"/>
<path style="fill:#e39866; stroke:none;" d="M215 259L216 260L215 259z"/>
<path style="fill:#bdafa6; stroke:none;" d="M225 259L226 260L225 259z"/>
<path style="fill:#e39866; stroke:none;" d="M216 260L217 261L216 260z"/>
<path style="fill:#bdafa6; stroke:none;" d="M226 260L227 261L226 260z"/>
<path style="fill:#e39866; stroke:none;" d="M217 261L218 262L217 261z"/>
<path style="fill:#bdafa6; stroke:none;" d="M227 261L228 262L227 261z"/>
<path style="fill:#e39866; stroke:none;" d="M218 262L219 263L218 262z"/>
<path style="fill:#bdafa6; stroke:none;" d="M228 262L229 263L228 262z"/>
<path style="fill:#e39866; stroke:none;" d="M219 263L220 264L219 263z"/>
<path style="fill:#bdafa6; stroke:none;" d="M229 263L230 264L229 263z"/>
<path style="fill:#e39866; stroke:none;" d="M220 264L221 265L220 264z"/>
<path style="fill:#bdafa6; stroke:none;" d="M230 264L231 265L230 264z"/>
<path style="fill:#e39866; stroke:none;" d="M221 265L222 266L221 265z"/>
<path style="fill:#bdafa6; stroke:none;" d="M231 265L232 266L231 265z"/>
<path style="fill:#e39866; stroke:none;" d="M222 266L223 267L222 266z"/>
<path style="fill:#bdafa6; stroke:none;" d="M232 266L233 267L232 266z"/>
<path style="fill:#e39866; stroke:none;" d="M223 267L224 268L223 267z"/>
<path style="fill:#bdafa6; stroke:none;" d="M233 267L234 268L233 267z"/>
<path style="fill:#e39866; stroke:none;" d="M224 268L225 269L224 268M225 269L226 270L225 269z"/>
<path style="fill:#bdafa6; stroke:none;" d="M234.333 269.667L234.667 270.333L234.333 269.667z"/>
<path style="fill:#e39866; stroke:none;" d="M226 270L227 271L226 270M227 271L228 272L227 271M228 272L229 273L228 272z"/>
<path style="fill:#bdafa6; stroke:none;" d="M233 272L234 273L233 272M229 273L229 274L232 274L229 273M324 289L325 290L324 289M324 291L325 292L324 291M324.667 293.333L325.333 293.667L324.667 293.333z"/>
</svg>
